# xmcd
#
# Track frame offsets:
#	150
#	12830
#	25393
#	43288
#	54455
#	67183
#	80168
#	96370
#	112963
#	128875
#	141033
#	152180
#	167825
#	182318
#	195305
#	208723
#	222475
#	238888
#	251163
#	263038
#
# Disc length: 3744 seconds
#
# Revision: 1
# Processed by: cddbd v1.5.2PL0 Copyright (c) Steve Scherf et al.
# Submitted via: EasyCDDAExtractor 16.0.6.1
#
DISCID=2a0e9e14
DTITLE=Woody Patty - Woodies Goodies
DYEAR=1989
DGENRE=Country
TTITLE0=Real Country Love
TTITLE1=Squeeze Me Baby
TTITLE2=I'm Missing Kissing You Goodnight
TTITLE3=The Best Big Mistake
TTITLE4=Cool Wine A Warm Woman
TTITLE5=Life Won't Always Be Ha Ha
TTITLE6=Prime Time
TTITLE7=Do Right Daddy
TTITLE8=A Funny Thing Happened
TTITLE9=I've Got To Pull Myself Together
TTITLE10=The Cricket Song
TTITLE11=What's The Matter With The Moon
TTITLE12=Next To Mine
TTITLE13=Don't It Feel Good
TTITLE14=The Valentine Song
TTITLE15=What's Good For The Goose
TTITLE16=These Favors We Ask
TTITLE17=I'll Go Out Of My Head
TTITLE18=Oliva
TTITLE19=Her last lonely days
EXTD=
EXTT0=
EXTT1=
EXTT2=
EXTT3=
EXTT4=
EXTT5=
EXTT6=
EXTT7=
EXTT8=
EXTT9=
EXTT10=
EXTT11=
EXTT12=
EXTT13=
EXTT14=
EXTT15=
EXTT16=
EXTT17=
EXTT18=
EXTT19=
PLAYORDER=
